# xmcd CD database file
#
# Track frame offsets:
#	150
#	19570
#	47723
#	59424
#	72606
#	84971
#	97528
#	107940
#	119156
#	141770
#
# Disc length: 2335 seconds
#
# Revision: 0
# Processed by: cddbd v1.5.1PL0 Copyright (c) Steve Scherf et al.
# Submitted via: CDex 1.51
#
DISCID=86091d0a
DTITLE=Ray Charles - The Best of Ray Charles LIVE
DYEAR=2004
DGENRE=Blues
TTITLE0=Talkin' Bout You
TTITLE1=I Got A Woman
TTITLE2=Tell Me Baby
TTITLE3=Baby Won't You PLease Come Home
TTITLE4=Heartbreaker
TTITLE5=Leave My Woman Alone
TTITLE6=Sittin' On Top Of The World
TTITLE7=You Be My Baby
TTITLE8=What'd I Say
TTITLE9=Georgia On My Mind
EXTD=YEAR: 2004
EXTT0=
EXTT1=
EXTT2=
EXTT3=
EXTT4=
EXTT5=
EXTT6=
EXTT7=
EXTT8=
EXTT9=
PLAYORDER=
